<?xml version="1.0" encoding="UTF-8" standalone="no"?>
<!-- Created with Inkscape (http://www.inkscape.org/) -->

<svg
   width="810.448"
   height="265.35822"
   viewBox="0 0 810.448 265.35822"
   version="1.1"
   id="svg1"
   xml:space="preserve"
   inkscape:version="1.4.3 (0d15f75, 2025-12-25)"
   sodipodi:docname="Logo-white-text-vector.svg"
   xmlns:inkscape="http://www.inkscape.org/namespaces/inkscape"
   xmlns:sodipodi="http://sodipodi.sourceforge.net/DTD/sodipodi-0.dtd"
   xmlns:xlink="http://www.w3.org/1999/xlink"
   xmlns="http://www.w3.org/2000/svg"
   xmlns:svg="http://www.w3.org/2000/svg"><sodipodi:namedview
     id="namedview1"
     pagecolor="#ffffff"
     bordercolor="#000000"
     borderopacity="0.25"
     inkscape:showpageshadow="2"
     inkscape:pageopacity="0.0"
     inkscape:pagecheckerboard="0"
     inkscape:deskcolor="#d1d1d1"
     inkscape:document-units="px"
     inkscape:zoom="3.6464844"
     inkscape:cx="194.70809"
     inkscape:cy="237.90037"
     inkscape:window-width="3840"
     inkscape:window-height="2085"
     inkscape:window-x="260"
     inkscape:window-y="1537"
     inkscape:window-maximized="1"
     inkscape:current-layer="g47"><inkscape:page
       x="0"
       y="0"
       width="810.448"
       height="265.35822"
       id="page2"
       margin="0"
       bleed="0" /></sodipodi:namedview><defs
     id="defs1"><color-profile
       name="sRGB-IEC61966-2.1"
       xlink:href="../../../../../WINDOWS/system32/spool/drivers/color/sRGB%20Color%20Space%20Profile.icm"
       id="color-profile1" /></defs><g
     id="g1"
     inkscape:groupmode="layer"
     inkscape:label="1"
     transform="translate(-163.76532,-264.17648)"><g
       id="g40"><g
         id="g48"
         inkscape:label="text"><g
           id="g46"
           inkscape:label="registered-trademark"><path
             id="path20"
             d="m 7234.45,3323.12 c -33.04,0 -59.92,-26.87 -59.92,-59.91 0,-33.04 26.88,-59.91 59.92,-59.91 33.03,0 59.91,26.87 59.91,59.91 0,33.04 -26.88,59.91 -59.91,59.91 z m 0,-132.07 c -9.74,0 -19.19,1.91 -28.09,5.68 -8.6,3.63 -16.31,8.83 -22.93,15.46 -6.63,6.62 -11.83,14.34 -15.46,22.93 -3.77,8.9 -5.68,18.35 -5.68,28.09 0,9.73 1.91,19.19 5.68,28.08 3.63,8.6 8.83,16.31 15.46,22.94 6.62,6.62 14.34,11.82 22.93,15.46 8.9,3.76 18.35,5.67 28.09,5.67 9.73,0 19.18,-1.91 28.08,-5.67 8.6,-3.64 16.31,-8.84 22.94,-15.46 6.62,-6.63 11.82,-14.34 15.46,-22.94 3.76,-8.9 5.67,-18.35 5.67,-28.08 0,-9.74 -1.91,-19.19 -5.67,-28.09 -3.64,-8.59 -8.84,-16.31 -15.46,-22.93 -6.63,-6.63 -14.35,-11.83 -22.94,-15.46 -8.9,-3.77 -18.35,-5.68 -28.08,-5.68"
             style="fill:#ffffff;fill-opacity:1;fill-rule:nonzero;stroke:none"
             transform="matrix(0.13333333,0,0,-0.13333333,0,793.70667)"
             inkscape:label="trademark-circle" /><path
             id="path21"
             d="m 7236.52,3264.24 c 8.55,0 14.42,3.4 14.42,12.15 0,8.14 -5.67,11.43 -14.42,11.43 h -13.8 v -23.58 z m 30.9,-37.08 h -14.52 l -9.58,19.26 c -1.86,3.71 -4.33,6.49 -10.61,6.49 h -9.99 v -25.75 h -13.08 v 72.1 h 27.29 c 16.69,0 27.2,-7.21 27.2,-22.45 0,-10.51 -5.67,-17.31 -13.29,-20.81 2.47,-1.34 4.02,-3.71 5.35,-6.38 l 11.23,-22.46"
             style="fill:#ffffff;fill-opacity:1;fill-rule:nonzero;stroke:none"
             transform="matrix(0.13333333,0,0,-0.13333333,0,793.70667)"
             inkscape:label="trademark-R" /></g><g
           id="g45"
           inkscape:label="That"><path
             id="path19"
             d="m 5971.2,2100.99 v 195.83 h -70.93 v 75.37 h 70.93 v 121.19 h 103.46 v -121.19 h 99.02 v -75.37 h -99.02 v -186.95 c 0,-33.26 14.78,-47.3 54.68,-47.3 18.48,0 35.46,4.44 45.81,7.4 v -79.07 c -17.74,-5.92 -46.55,-9.61 -68.73,-9.61 -91.62,0 -135.22,41.38 -135.22,119.7"
             style="fill:#ffffff;fill-opacity:1;fill-rule:nonzero;stroke:none"
             transform="matrix(0.13333333,0,0,-0.13333333,0,793.70667)"
             inkscape:label="Letter-t" /><path
             id="path18"
             d="m 5770.55,2130.56 v 30.29 l -103.46,-14.04 c -31.77,-4.43 -48.03,-17.73 -48.03,-44.34 0,-27.34 22.17,-43.59 59.86,-43.59 50.25,0 91.63,29.56 91.63,71.68 z m -251.23,-33.26 c 0,65.03 41.37,103.45 110.83,113.06 l 140.4,19.95 v 22.17 c 0,31.78 -20.69,50.99 -65.76,50.99 -42.12,0 -68.73,-16.26 -72.43,-48.77 h -97.54 c 5.92,81.28 73.17,127.09 172.19,127.09 102.7,0 163.3,-50.98 163.3,-130.79 v -260.1 h -95.33 l -3.7,58.38 c -22.89,-41.39 -67.23,-67.99 -123.39,-67.99 -76.86,0 -128.57,48.77 -128.57,116.01"
             style="fill:#ffffff;fill-opacity:1;fill-rule:nonzero;stroke:none"
             transform="matrix(0.13333333,0,0,-0.13333333,0,793.70667)"
             inkscape:label="Letter-a" /><path
             id="path17"
             d="m 5121.75,1990.9 v 546.82 h 104.19 v -220.95 c 19.96,33.99 58.39,65.02 118.98,65.02 94.59,0 132.27,-59.85 132.27,-145.56 V 1990.9 h -102.71 v 219.46 c 0,55.42 -19.22,87.94 -68.73,87.94 -48.04,0 -80.54,-35.47 -80.54,-96.07 V 1990.9 h -103.46"
             style="fill:#ffffff;fill-opacity:1;fill-rule:nonzero;stroke:none"
             transform="matrix(0.13333333,0,0,-0.13333333,0,793.70667)"
             inkscape:label="Letter-h" /><path
             id="path16"
             d="m 4834.54,1990.9 v 435.24 h -149.25 v 89.41 h 406.41 v -89.41 H 4943.17 V 1990.9 h -108.63"
             style="fill:#ffffff;fill-opacity:1;fill-rule:nonzero;stroke:none"
             transform="matrix(0.13333333,0,0,-0.13333333,0,793.70667)"
             inkscape:label="Letter-T" /></g><g
           id="g44"
           inkscape:label="Hack"><path
             id="path15"
             d="M 4327.27,2126.86 V 1990.9 h -103.45 v 546.82 h 103.45 v -302.23 l 135.23,136.7 h 121.2 l -147.06,-146.31 152.95,-234.98 h -115.26 l -110.85,172.17 -36.21,-36.21"
             style="fill:#ffffff;fill-opacity:1;fill-rule:nonzero;stroke:none"
             transform="matrix(0.13333333,0,0,-0.13333333,0,793.70667)"
             inkscape:label="Letter-k" /><path
             id="path14"
             d="m 3812.22,2177.11 v 9.61 c 0,116.75 71.67,195.07 190.64,195.07 99.75,0 166.27,-57.63 177.35,-152.95 h -101.97 c -6.65,43.59 -28.09,72.41 -76.85,72.41 -56.9,0 -84.25,-41.38 -84.25,-114.53 v -9.61 c 0,-73.9 27.35,-115.28 84.25,-115.28 48.76,0 70.93,29.56 77.59,72.42 h 101.97 c -11.82,-95.32 -78.34,-152.96 -178.09,-152.96 -118.97,0 -190.64,79.07 -190.64,195.82"
             style="fill:#ffffff;fill-opacity:1;fill-rule:nonzero;stroke:none"
             transform="matrix(0.13333333,0,0,-0.13333333,0,793.70667)"
             inkscape:label="Letter-c" /><path
             id="path13"
             d="m 3664.53,2130.56 v 30.29 l -103.45,-14.04 c -31.77,-4.43 -48.04,-17.73 -48.04,-44.34 0,-27.34 22.18,-43.59 59.86,-43.59 50.25,0 91.63,29.56 91.63,71.68 z M 3413.3,2097.3 c 0,65.03 41.38,103.45 110.83,113.06 l 140.4,19.95 v 22.17 c 0,31.78 -20.68,50.99 -65.75,50.99 -42.12,0 -68.73,-16.26 -72.43,-48.77 h -97.54 c 5.91,81.28 73.16,127.09 172.18,127.09 102.7,0 163.3,-50.98 163.3,-130.79 v -260.1 h -95.32 l -3.7,58.38 c -22.9,-41.39 -67.23,-67.99 -123.4,-67.99 -76.86,0 -128.57,48.77 -128.57,116.01"
             style="fill:#ffffff;fill-opacity:1;fill-rule:nonzero;stroke:none"
             transform="matrix(0.13333333,0,0,-0.13333333,0,793.70667)"
             inkscape:label="Letter-a" /><path
             id="path12"
             d="m 2920.9,1990.9 v 524.65 h 109.37 v -209.86 h 229.07 v 209.86 h 109.37 V 1990.9 h -109.37 v 224.64 H 3030.27 V 1990.9 H 2920.9"
             style="fill:#ffffff;fill-opacity:1;fill-rule:nonzero;stroke:none"
             transform="matrix(0.13333333,0,0,-0.13333333,0,793.70667)"
             inkscape:label="Letter-H" /></g><g
           id="g42"
           inkscape:label="Gotta"><path
             id="path11"
             d="m 7090.89,2890.46 v 30.29 l -103.45,-14.04 c -31.77,-4.43 -48.03,-17.73 -48.03,-44.34 0,-27.34 22.17,-43.59 59.86,-43.59 50.25,0 91.62,29.56 91.62,71.68 z m -251.23,-33.25 c 0,65.02 41.38,103.45 110.83,113.05 l 140.4,19.96 v 22.16 c 0,31.78 -20.68,50.99 -65.75,50.99 -42.12,0 -68.73,-16.26 -72.43,-48.77 h -97.54 c 5.91,81.28 73.16,127.09 172.19,127.09 102.69,0 163.29,-50.98 163.29,-130.79 v -260.1 h -95.32 l -3.7,58.38 c -22.9,-41.39 -67.23,-67.99 -123.39,-67.99 -76.87,0 -128.58,48.77 -128.58,116.02"
             style="fill:#ffffff;fill-opacity:1;fill-rule:nonzero;stroke:none"
             transform="matrix(0.13333333,0,0,-0.13333333,0,793.70667)"
             inkscape:label="Letter-a" /><path
             id="path10"
             d="m 6765.01,2822.47 c -39.9,0 -54.68,14.04 -54.68,47.3 v 186.95 h 99.02 v 75.37 h -99.02 v 121.19 h -103.46 v -121.19 h -167.85 v 121.19 h -103.46 v -121.19 h -70.93 v -75.37 h 70.93 V 2860.9 c 0,-78.33 43.6,-119.71 135.23,-119.71 22.17,0 50.99,3.69 68.73,9.61 v 79.07 c -10.35,-2.96 -27.34,-7.4 -45.82,-7.4 -39.9,0 -54.68,14.04 -54.68,47.3 v 186.95 h 167.85 V 2860.9 c 0,-78.33 43.6,-119.71 135.23,-119.71 22.17,0 50.99,3.69 68.73,9.61 v 79.07 c -10.35,-2.96 -27.34,-7.4 -45.82,-7.4"
             style="fill:#ffffff;fill-opacity:1;fill-rule:nonzero;stroke:none"
             transform="matrix(0.13333333,0,0,-0.13333333,0,793.70667)"
             inkscape:label="Letter-tt" /><path
             id="path9"
             d="m 6143.8,2937.01 v 8.87 c 0,74.63 -30.29,115.27 -90.89,115.27 -60.58,0 -90.89,-40.64 -90.89,-114.53 v -9.61 c 0,-74.64 30.31,-115.28 90.89,-115.28 60.6,0 90.89,40.64 90.89,115.28 z m -286.72,0 v 9.61 c 0,115.27 77.61,195.07 195.83,195.07 118.24,0 195.82,-79.8 195.82,-195.81 v -8.87 c 0,-116.01 -77.58,-195.82 -195.82,-195.82 -118.22,0 -195.83,79.81 -195.83,195.82"
             style="fill:#ffffff;fill-opacity:1;fill-rule:nonzero;stroke:none"
             transform="matrix(0.13333333,0,0,-0.13333333,0,793.70667)"
             inkscape:label="Letter-o" /><path
             id="path8"
             d="m 5323.82,3004.99 v 16.26 c 0,154.44 101.23,263.8 254.94,263.8 127.83,0 211.35,-76.1 226.85,-182.52 h -110.83 c -13.3,56.91 -53.94,91.63 -117.5,91.63 -90.15,0 -139.66,-70.2 -139.66,-172.91 v -16.26 c 0,-103.45 52.47,-172.17 142.62,-172.17 89.41,0 133.75,55.42 135.22,123.4 h -147.05 v 85.72 h 239.42 V 2750.8 h -81.28 l -8.87,67.98 c -26.59,-45.82 -84.97,-77.59 -154.44,-77.59 -144.1,0 -239.42,110.1 -239.42,263.8"
             style="fill:#ffffff;fill-opacity:1;fill-rule:nonzero;stroke:none"
             transform="matrix(0.13333333,0,0,-0.13333333,0,793.70667)"
             inkscape:label="Letter-G" /></g><g
           id="g41"
           inkscape:label="You"><path
             id="path7"
             d="m 4813.06,2888.24 v 243.85 h 104.19 v -223.9 c 0,-53.94 19.96,-82.76 65.77,-82.76 47.3,0 76.85,34.73 76.85,98.28 v 208.38 h 104.19 V 2750.8 h -100.5 l -2.21,55.42 c -21.44,-34 -60.6,-65.03 -116.03,-65.03 -90.15,0 -132.26,56.9 -132.26,147.05"
             style="fill:#ffffff;fill-opacity:1;fill-rule:nonzero;stroke:none"
             transform="matrix(0.13333333,0,0,-0.13333333,0,793.70667)"
             inkscape:label="Letter-u" /><path
             id="path6"
             d="m 4668.09,2937.01 v 8.87 c 0,74.63 -30.29,115.27 -90.89,115.27 -60.59,0 -90.89,-40.64 -90.89,-114.53 v -9.61 c 0,-74.64 30.3,-115.28 90.89,-115.28 60.6,0 90.89,40.64 90.89,115.28 z m -286.71,0 v 9.61 c 0,115.27 77.6,195.07 195.82,195.07 118.23,0 195.83,-79.8 195.83,-195.81 v -8.87 c 0,-116.01 -77.6,-195.82 -195.83,-195.82 -118.22,0 -195.82,79.81 -195.82,195.82"
             style="fill:#ffffff;fill-opacity:1;fill-rule:nonzero;stroke:none"
             transform="matrix(0.13333333,0,0,-0.13333333,0,793.70667)"
             inkscape:label="Letter-o" /><path
             id="path5"
             d="m 4157.72,2750.8 v 170.69 l -180.3,353.96 h 117.5 l 118.97,-251.25 117.5,251.25 h 114.52 L 4266.35,2921.49 V 2750.8 h -108.63"
             style="fill:#ffffff;fill-opacity:1;fill-rule:nonzero;stroke:none"
             transform="matrix(0.13333333,0,0,-0.13333333,0,793.70667)"
             inkscape:label="Letter-Y" /></g></g><g
         id="g47"
         inkscape:label="icon"><path
           id="path2"
           d="m 1249.8,3071.39 -21.56,144.59 1190.53,177.5 21.55,-144.58 -1190.52,-177.51"
           style="fill:#42299b;fill-opacity:1;fill-rule:nonzero;stroke:none"
           transform="matrix(0.13333333,0,0,-0.13333333,0,793.70667)"
           inkscape:label="purple-tri" /><path
           id="path3"
           d="m 2077.46,2621.33 -24.43,1170.8 c -0.68,32.86 16.36,63.85 44.47,80.87 28.11,17.02 63.44,17.76 92.26,1.91 l 1026.15,-564.24 -70.77,-128.71 -943.29,518.67 22.46,-1076.24 -146.85,-3.06"
           style="fill:#7df57c;fill-opacity:1;fill-rule:nonzero;stroke:none"
           transform="matrix(0.13333333,0,0,-0.13333333,0,793.70667)"
           inkscape:label="green-tri" /><path
           id="path4"
           d="m 2663.19,3021.71 941.54,-130.06 -358.13,880.42 z M 3690.3,2733.12 c -4.14,0 -8.3,0.28 -12.47,0.85 L 2550.1,2889.76 c -32.42,4.46 -60.23,26.08 -72.58,56.41 -12.34,30.33 -7.52,65.22 12.58,91.07 l 698.76,898.75 c 20.1,25.84 52.76,39.08 85.15,34.64 32.44,-4.48 60.24,-26.1 72.59,-56.42 l 428.95,-1054.53 c 12.34,-30.33 7.52,-65.22 -12.57,-91.06 -17.51,-22.52 -44.55,-35.5 -72.68,-35.5"
           style="fill:#4d71ef;fill-opacity:1;fill-rule:nonzero;stroke:none"
           transform="matrix(0.13333333,0,0,-0.13333333,0,793.70667)"
           inkscape:label="blue-tri" /></g></g></g></svg>
